<svg xmlns="http://www.w3.org/2000/svg" version="1.1" xmlns:xlink="http://www.w3.org/1999/xlink" xmlns:svgjs="http://svgjs.com/svgjs" width="700" height="700"><svg width="700" height="700" viewBox="0 0 700 700" fill="none" xmlns="http://www.w3.org/2000/svg">
<path fill-rule="evenodd" clip-rule="evenodd" d="M298.868 637.074C315.834 639.635 332.923 640.941 350 641C367.077 640.941 384.166 639.635 401.132 637.074C509.93 620.781 601.22 559.37 643.739 472.892C657.495 442.813 666.248 411.481 668.75 378.895L670 223.486C670 92.2489 670 84.8162 666.85 79.1344C666.662 78.7946 666.462 78.4611 666.251 78.1078L666.248 78.1035C663.747 71.8371 657.495 65.5706 651.242 61.8107C644.989 58.0508 629.982 56.7975 623.73 59.3041C580.979 76.2813 538.457 93.8291 496.174 111.943C488.67 113.196 486.169 113.196 467.411 106.929C429.4 94.4517 389.792 87.9769 350 87.6415C310.208 87.9769 270.6 94.4517 232.589 106.929C213.831 113.196 211.33 113.196 203.826 111.943C161.543 93.8291 119.021 76.2813 76.2704 59.3041C70.0176 56.7975 55.011 58.0508 48.7583 61.8107C42.5055 65.5706 36.2527 71.8371 33.7516 78.1035C33.5392 78.4584 33.3387 78.7933 33.1496 79.1344C30 84.8162 30 92.2489 30 223.486L31.2505 378.895C33.7516 411.481 42.5055 442.813 56.2615 472.892C98.7802 559.37 190.07 620.781 298.868 637.074ZM225.086 358.842C216.58 360.271 208.556 363.777 201.722 369.05C194.889 374.324 189.456 381.203 185.905 389.08C182.353 396.956 180.791 405.588 181.358 414.213C181.924 422.838 184.601 431.191 189.152 438.533C193.703 445.875 199.988 451.981 207.452 456.312C214.917 460.643 223.33 463.064 231.949 463.364C240.569 463.663 249.129 461.83 256.874 458.027C264.62 454.225 271.311 448.569 276.358 441.56C282.141 433.114 285.339 423.161 285.562 412.921C285.784 402.68 283.02 392.598 277.609 383.908C271.356 371.375 256.35 361.349 243.844 358.842H225.086ZM474.914 358.842C483.42 360.271 491.444 363.777 498.278 369.05C505.111 374.324 510.544 381.203 514.096 389.08C517.647 396.956 519.209 405.588 518.642 414.213C518.076 422.838 515.399 431.191 510.848 438.533C506.297 445.875 500.012 451.981 492.548 456.312C485.084 460.643 476.67 463.064 468.051 463.364C459.431 463.663 450.871 461.83 443.126 458.027C435.38 454.225 428.689 448.569 423.642 441.56C417.859 433.114 414.661 423.161 414.438 412.921C414.216 402.68 416.98 392.598 422.391 383.908C428.644 371.375 443.651 361.349 456.156 358.842H474.914Z" fill="#2196F3"></path>
</svg><style>@media (prefers-color-scheme: light) { :root { filter: none; } }
</style></svg>